<svg xmlns="http://www.w3.org/2000/svg" xmlns:xlink="http://www.w3.org/1999/xlink" width="91.125" height="83" viewBox="0 0 91.125 83">
  <defs>
    <filter id="Icon_awesome-puzzle-piece" x="0" y="0" width="91.125" height="83" filterUnits="userSpaceOnUse">
      <feOffset dy="3" input="SourceAlpha"/>
      <feGaussianBlur stdDeviation="3" result="blur"/>
      <feFlood flood-opacity="0.161"/>
      <feComposite operator="in" in2="blur"/>
      <feComposite in="SourceGraphic"/>
    </filter>
  </defs>
  <g transform="matrix(1, 0, 0, 1, 0, 0)" filter="url(#Icon_awesome-puzzle-piece)">
    <path id="Icon_awesome-puzzle-piece-2" data-name="Icon awesome-puzzle-piece" d="M65.945,36.645c-5.271,0-7.554,4.011-10.418,4.011-7.614,0-.684-22.375-.684-22.375s-24.919,10.156-24.919-.419c0-4.548,4.607-5.872,4.607-10.916C34.531,2.44,30.962,0,26.729,0,22.329,0,18.3,2.4,18.3,7.153c0,5.251,4.026,7.525,4.026,10.378C22.329,26.371,0,21.17,0,21.17V63.476s22.678,5.211,22.678-3.639c0-2.853-5.078-5.092-5.078-10.343,0-4.755,3.713-7.153,8.071-7.153,4.275,0,7.844,2.44,7.844,6.947,0,5.044-4.607,6.368-4.607,10.916,0,7.719,16.463,3.266,23.008,3.266,0,0-4.408-15.247,3.279-15.247,4.565,0,5.894,4.59,10.957,4.59,4.524,0,6.973-3.556,6.973-7.815,0-4.342-2.407-8.353-7.18-8.353Z" transform="translate(9 6)" fill="#7daee8"/>
  </g>
</svg>
