<svg xmlns="http://www.w3.org/2000/svg" xmlns:xlink="http://www.w3.org/1999/xlink" width="83" height="83" viewBox="0 0 83 83">
  <defs>
    <filter id="chess-solid" x="0" y="0" width="83" height="83" filterUnits="userSpaceOnUse">
      <feOffset dy="3" input="SourceAlpha"/>
      <feGaussianBlur stdDeviation="3" result="blur"/>
      <feFlood flood-opacity="0.161"/>
      <feComposite operator="in" in2="blur"/>
      <feComposite in="SourceGraphic"/>
    </filter>
  </defs>
  <g transform="matrix(1, 0, 0, 1, 0, 0)" filter="url(#chess-solid)">
    <path id="chess-solid-2" data-name="chess-solid" d="M9.395,26.406H8.125a2.031,2.031,0,0,0-2.031,2.031v2.031A2.031,2.031,0,0,0,8.125,32.5h2.024A68.019,68.019,0,0,1,8.125,48.75h16.25A68.018,68.018,0,0,1,22.351,32.5h2.024a2.031,2.031,0,0,0,2.031-2.031V28.438a2.031,2.031,0,0,0-2.031-2.031h-1.27l4.3-11.474a2.031,2.031,0,0,0-1.9-2.745H18.281V8.125h3.047a1.016,1.016,0,0,0,1.016-1.016V5.078a1.016,1.016,0,0,0-1.016-1.016H18.281V1.016A1.016,1.016,0,0,0,17.266,0H15.234a1.016,1.016,0,0,0-1.016,1.016V4.063H11.172a1.016,1.016,0,0,0-1.016,1.016V7.109a1.016,1.016,0,0,0,1.016,1.016h3.047v4.063H6.994a2.031,2.031,0,0,0-1.9,2.745ZM31.378,58.345l-2.94-1.47V54.844a2.031,2.031,0,0,0-2.031-2.031H6.094a2.031,2.031,0,0,0-2.031,2.031v2.031l-2.939,1.47A2.031,2.031,0,0,0,0,60.162v2.807A2.031,2.031,0,0,0,2.031,65H30.469A2.031,2.031,0,0,0,32.5,62.969V60.162a2.031,2.031,0,0,0-1.122-1.817ZM43.155,38.314,42.737,48.75H58.825l-.418-10.437,3.123-2.639a4.063,4.063,0,0,0,1.438-3.105V25.137a.762.762,0,0,0-.762-.762H58.858a.762.762,0,0,0-.762.762v3.3H54.959v-3.3a.762.762,0,0,0-.762-.762H47.366a.762.762,0,0,0-.762.762v3.3H43.467v-3.3a.762.762,0,0,0-.762-.762h-3.35a.762.762,0,0,0-.762.762v7.439a4.062,4.062,0,0,0,1.442,3.1Zm5.595.279a2.031,2.031,0,0,1,4.063,0v4.063H48.75ZM63.878,58.345l-2.94-1.47V54.844a2.031,2.031,0,0,0-2.031-2.031H42.656a2.031,2.031,0,0,0-2.031,2.031v2.031l-2.939,1.47a2.031,2.031,0,0,0-1.124,1.817v2.807A2.031,2.031,0,0,0,38.594,65H62.969A2.031,2.031,0,0,0,65,62.969V60.162a2.031,2.031,0,0,0-1.122-1.817Z" transform="translate(9 6)" fill="#7daee8"/>
  </g>
</svg>
