<svg viewBox="0 0 448 512" xmlns="http://www.w3.org/2000/svg" xmlns:xlink="http://www.w3.org/1999/xlink" overflow="hidden"><path d="M400 32 48 32C21.4903 32 0 53.4903 7.10543e-15 80L0 432C0 458.51 21.4903 480 48 480L185.25 480 185.25 327.69 122.25 327.69 122.25 256 185.25 256 185.25 201.36C185.25 139.21 222.25 104.88 278.92 104.88 306.06 104.88 334.44 109.72 334.44 109.72L334.44 170.72 303.17 170.72C272.36 170.72 262.75 189.84 262.75 209.45L262.75 256 331.53 256 320.53 327.69 262.75 327.69 262.75 480 400 480C426.51 480 448 458.51 448 432L448 80C448 53.4903 426.51 32 400 32Z" fill="#2680EB"/></svg>