<svg xmlns="http://www.w3.org/2000/svg" xmlns:xlink="http://www.w3.org/1999/xlink" width="94.098" height="83" viewBox="0 0 94.098 83">
  <defs>
    <filter id="Icon_material-directions-bike" x="0" y="0" width="94.098" height="83" filterUnits="userSpaceOnUse">
      <feOffset dy="3" input="SourceAlpha"/>
      <feGaussianBlur stdDeviation="3" result="blur"/>
      <feFlood flood-opacity="0.161"/>
      <feComposite operator="in" in2="blur"/>
      <feComposite in="SourceGraphic"/>
    </filter>
  </defs>
  <g transform="matrix(1, 0, 0, 1, 0, 0)" filter="url(#Icon_material-directions-bike)">
    <path id="Icon_material-directions-bike-2" data-name="Icon material-directions-bike" d="M49.146,14.933A6.341,6.341,0,1,0,42.8,8.591,6.36,6.36,0,0,0,49.146,14.933ZM15.854,35.543a15.854,15.854,0,1,0,0,31.707,15.854,15.854,0,1,0,0-31.707Zm0,26.951a11.1,11.1,0,0,1,0-22.2,11.1,11.1,0,0,1,0,22.2Zm18.39-31.707,7.61-7.61,2.537,2.537a22.213,22.213,0,0,0,16.171,6.659V26.03a15.753,15.753,0,0,1-11.415-4.756L43.122,15.25a7.774,7.774,0,0,0-5.073-1.9,5.321,5.321,0,0,0-4.439,1.9l-8.878,8.878a6.26,6.26,0,0,0-1.9,4.439,5.321,5.321,0,0,0,1.9,4.439l10.146,8.878V57.738H41.22V38.079l-6.976-7.293Zm26,4.756A15.854,15.854,0,1,0,76.1,51.4,15.7,15.7,0,0,0,60.244,35.543Zm0,26.951a11.1,11.1,0,1,1,11.1-11.1A11.234,11.234,0,0,1,60.244,62.494Z" transform="translate(9 3.75)" fill="#7daee8"/>
  </g>
</svg>
