<svg xmlns="http://www.w3.org/2000/svg" xmlns:xlink="http://www.w3.org/1999/xlink" width="39.296" height="39.292" viewBox="0 0 39.296 39.292">
  <defs>
    <filter id="Icon_awesome-instagram" x="0" y="0" width="39.296" height="39.292" filterUnits="userSpaceOnUse">
      <feOffset dy="3" input="SourceAlpha"/>
      <feGaussianBlur stdDeviation="3" result="blur"/>
      <feFlood flood-opacity="0.161"/>
      <feComposite operator="in" in2="blur"/>
      <feComposite in="SourceGraphic"/>
    </filter>
  </defs>
  <g transform="matrix(1, 0, 0, 1, 0, 0)" filter="url(#Icon_awesome-instagram)">
    <path id="Icon_awesome-instagram-2" data-name="Icon awesome-instagram" d="M10.645,7.425A5.459,5.459,0,1,0,16.1,12.883,5.45,5.45,0,0,0,10.645,7.425Zm0,9.008a3.549,3.549,0,1,1,3.549-3.549,3.555,3.555,0,0,1-3.549,3.549ZM17.6,7.2a1.273,1.273,0,1,1-1.273-1.273A1.27,1.27,0,0,1,17.6,7.2Zm3.615,1.292A6.3,6.3,0,0,0,19.5,4.032a6.342,6.342,0,0,0-4.461-1.72c-1.758-.1-7.027-.1-8.785,0A6.333,6.333,0,0,0,1.789,4.028,6.322,6.322,0,0,0,.07,8.489c-.1,1.758-.1,7.027,0,8.785a6.3,6.3,0,0,0,1.72,4.461,6.351,6.351,0,0,0,4.461,1.72c1.758.1,7.027.1,8.785,0a6.3,6.3,0,0,0,4.461-1.72,6.342,6.342,0,0,0,1.72-4.461c.1-1.758.1-7.022,0-8.78ZM18.945,19.159a3.593,3.593,0,0,1-2.024,2.024c-1.4.556-4.727.428-6.276.428s-4.879.124-6.276-.428a3.593,3.593,0,0,1-2.024-2.024c-.556-1.4-.428-4.727-.428-6.276S1.794,8,2.345,6.607A3.593,3.593,0,0,1,4.369,4.583c1.4-.556,4.727-.428,6.276-.428s4.879-.124,6.276.428a3.593,3.593,0,0,1,2.024,2.024c.556,1.4.428,4.727.428,6.276S19.5,17.763,18.945,19.159Z" transform="translate(9.01 3.76)" fill="#2680eb"/>
  </g>
</svg>
