<svg xmlns="http://www.w3.org/2000/svg" xmlns:xlink="http://www.w3.org/1999/xlink" width="39.284" height="39.284" viewBox="0 0 39.284 39.284">
  <defs>
    <filter id="Icon_awesome-linkedin" x="0" y="0" width="39.284" height="39.284" filterUnits="userSpaceOnUse">
      <feOffset dy="3" input="SourceAlpha"/>
      <feGaussianBlur stdDeviation="3" result="blur"/>
      <feFlood flood-opacity="0.161"/>
      <feComposite operator="in" in2="blur"/>
      <feComposite in="SourceGraphic"/>
    </filter>
  </defs>
  <g transform="matrix(1, 0, 0, 1, 0, 0)" filter="url(#Icon_awesome-linkedin)">
    <path id="Icon_awesome-linkedin-2" data-name="Icon awesome-linkedin" d="M19.764,2.25H1.516A1.527,1.527,0,0,0,0,3.785V22a1.527,1.527,0,0,0,1.516,1.535H19.764A1.531,1.531,0,0,0,21.284,22V3.785A1.531,1.531,0,0,0,19.764,2.25ZM6.433,20.494H3.278V10.336H6.438V20.494ZM4.856,8.949A1.829,1.829,0,1,1,6.685,7.12,1.83,1.83,0,0,1,4.856,8.949Zm13.4,11.545H15.1V15.553c0-1.178-.024-2.694-1.639-2.694-1.644,0-1.9,1.283-1.9,2.608v5.027H8.414V10.336H11.44v1.387h.043a3.323,3.323,0,0,1,2.988-1.639c3.193,0,3.787,2.1,3.787,4.841Z" transform="translate(9 3.75)" fill="#2680eb"/>
  </g>
</svg>
