<svg xmlns="http://www.w3.org/2000/svg" xmlns:xlink="http://www.w3.org/1999/xlink" width="58.626" height="83" viewBox="0 0 58.626 83">
  <defs>
    <filter id="walking-solid" x="0" y="0" width="58.626" height="83" filterUnits="userSpaceOnUse">
      <feOffset dy="3" input="SourceAlpha"/>
      <feGaussianBlur stdDeviation="3" result="blur"/>
      <feFlood flood-opacity="0.161"/>
      <feComposite operator="in" in2="blur"/>
      <feComposite in="SourceGraphic"/>
    </filter>
  </defs>
  <g transform="matrix(1, 0, 0, 1, 0, 0)" filter="url(#walking-solid)">
    <path id="walking-solid-2" data-name="walking-solid" d="M26.424,12.186a6.093,6.093,0,1,0-6.093-6.093A6.094,6.094,0,0,0,26.424,12.186Zm12,18.926-2.958-1.5-1.231-3.732a13.84,13.84,0,0,0-12.973-9.634c-4.57-.013-7.1,1.282-11.843,3.2a12.108,12.108,0,0,0-6.309,5.864l-.85,1.726a4.075,4.075,0,0,0,1.8,5.445,4.007,4.007,0,0,0,5.395-1.815l.85-1.726A4.035,4.035,0,0,1,12.4,26.986l3.4-1.371-1.929,7.7a8.152,8.152,0,0,0,1.891,7.464l7.6,8.3A8.192,8.192,0,0,1,25.256,52.6l2.323,9.3a4.062,4.062,0,0,0,7.883-1.967l-2.818-11.3a8.12,8.12,0,0,0-1.891-3.516l-5.776-6.309L27.16,30.1l.7,2.094a8.1,8.1,0,0,0,4.024,4.7l2.958,1.5a4.007,4.007,0,0,0,5.395-1.815,4.11,4.11,0,0,0-1.815-5.458ZM9.364,48.971a7.877,7.877,0,0,1-1.8,2.729L1.215,58.06a4.061,4.061,0,0,0,5.737,5.75l7.54-7.54a8.251,8.251,0,0,0,1.8-2.729l1.714-4.29c-7.019-7.654-4.912-5.306-6.017-6.816L9.364,48.971Z" transform="translate(8.98 6)" fill="#7daee8"/>
  </g>
</svg>
